<?xml version="1.0" standalone="no"?>
<!DOCTYPE svg PUBLIC "-//W3C//DTD SVG 20010904//EN"
 "http://www.w3.org/TR/2001/REC-SVG-20010904/DTD/svg10.dtd">
<svg version="1.0" xmlns="http://www.w3.org/2000/svg"
 width="300.000000pt" height="453.000000pt" viewBox="0 0 300.000000 453.000000"
 preserveAspectRatio="xMidYMid meet">
<metadata>
Created by potrace 1.10, written by Peter Selinger 2001-2011
</metadata>
<g transform="translate(0.000000,453.000000) scale(0.100000,-0.100000)"
fill="#000000" stroke="none">
<path d="M2075 3974 c-11 -9 -101 -64 -200 -123 -99 -60 -292 -177 -430 -261
-137 -84 -356 -217 -485 -296 -207 -126 -286 -184 -249 -184 6 0 108 60 227
134 255 156 666 408 979 598 123 74 220 138 216 142 -11 10 -37 6 -58 -10z"/>
<path d="M2170 3744 c-30 -19 -57 -40 -59 -47 -2 -6 7 -4 20 6 13 10 38 24 56
32 30 14 49 32 41 40 -2 2 -28 -12 -58 -31z"/>
<path d="M1970 3547 c-675 -407 -1102 -669 -1096 -674 2 -2 47 23 100 56 85
54 97 58 106 43 10 -15 10 -15 6 3 -6 21 2 26 404 267 91 54 172 103 180 108
146 91 380 230 388 230 6 0 12 4 14 8 2 5 44 33 93 62 104 62 100 59 94 64 -2
2 -132 -73 -289 -167z"/>
<path d="M2005 3641 c-6 -5 -37 -23 -70 -41 -65 -35 -106 -67 -70 -54 11 4 26
12 34 18 16 12 34 23 90 54 22 12 41 25 41 27 0 8 -15 6 -25 -4z"/>
<path d="M2230 3539 c-52 -32 -98 -55 -102 -53 -4 3 -8 1 -8 -4 0 -9 -328
-211 -343 -211 -4 0 -15 -7 -23 -16 -9 -8 -20 -13 -25 -10 -5 4 -9 2 -9 -3 0
-9 -137 -96 -150 -96 -3 0 -11 -6 -19 -13 -11 -12 -15 -11 -28 4 -13 17 -14
17 -5 -2 9 -17 2 -24 -51 -57 -34 -21 -71 -41 -82 -44 -11 -4 -22 -10 -25 -14
-9 -13 -220 -140 -220 -133 0 5 -4 3 -8 -3 -12 -20 -143 -95 -153 -88 -5 3 -8
1 -7 -5 2 -5 -6 -16 -16 -24 -15 -11 -16 -16 -6 -22 7 -5 11 -4 8 1 -6 9 364
238 378 234 4 -1 10 3 13 8 12 20 374 233 387 228 8 -3 13 0 11 6 -2 9 55 48
160 109 23 13 119 71 214 128 95 57 183 109 196 116 14 7 21 15 16 17 -4 3
-51 -21 -103 -53z"/>
<path d="M1098 3306 c-180 -111 -333 -207 -340 -215 -7 -7 34 16 92 52 108 66
186 113 350 214 52 32 102 62 111 68 9 5 34 20 56 32 31 17 78 56 62 52 -2 -1
-151 -92 -331 -203z"/>
<path d="M1465 3448 l26 -47 -43 -27 c-24 -15 -67 -42 -96 -60 -29 -19 -54
-34 -56 -34 -2 0 -33 -18 -67 -40 -35 -21 -82 -50 -104 -63 -22 -13 -99 -60
-172 -105 l-132 -81 -21 27 c-19 25 -13 6 9 -27 7 -11 81 30 342 189 184 112
338 207 343 211 11 9 -3 39 -35 79 -14 17 -12 11 6 -22z"/>
<path d="M2326 3429 c-43 -27 -84 -46 -90 -42 -6 3 -8 3 -4 -2 10 -11 -220
-147 -234 -139 -6 4 -8 3 -5 -4 9 -13 -180 -125 -195 -116 -6 4 -8 2 -5 -3 4
-6 -35 -36 -89 -67 -91 -54 -97 -56 -110 -39 -14 17 -14 16 -5 -4 10 -20 4
-25 -82 -76 -379 -223 -496 -298 -489 -315 6 -16 7 -16 10 0 3 15 359 238 380
238 6 0 12 4 14 8 7 17 178 113 189 106 7 -4 9 -3 6 3 -9 14 179 127 194 117
7 -4 9 -3 6 3 -8 13 180 126 195 117 6 -4 8 -3 5 3 -4 6 60 50 151 103 218
129 242 144 242 153 0 9 7 13 -84 -44z"/>
<path d="M1500 3335 c-7 -8 -18 -15 -26 -15 -7 0 -15 -4 -18 -8 -3 -5 1 -9 9
-9 17 0 75 46 59 47 -6 0 -17 -7 -24 -15z"/>
<path d="M2401 3305 c-41 -24 -79 -42 -85 -38 -6 3 -8 2 -3 -2 10 -11 -191
-128 -205 -119 -7 4 -8 3 -4 -5 4 -6 0 -14 -11 -18 -10 -4 -20 -9 -23 -13 -5
-5 -89 -56 -180 -108 -19 -11 -111 -65 -203 -121 -92 -56 -173 -99 -179 -95
-7 4 -8 3 -4 -5 4 -6 0 -14 -11 -18 -10 -4 -49 -27 -87 -52 -38 -24 -76 -44
-83 -44 -7 0 -13 -3 -13 -7 0 -4 -52 -38 -115 -75 -63 -37 -112 -72 -108 -77
3 -7 8 -6 12 0 3 5 179 114 391 241 319 191 387 228 400 218 13 -10 13 -10 4
3 -10 13 31 40 255 173 329 195 348 206 336 207 -5 0 -43 -20 -84 -45z"/>
<path d="M2475 3181 c-169 -101 -772 -459 -820 -486 -27 -16 -57 -34 -65 -41
-8 -7 -22 -14 -30 -16 -8 -2 -17 -6 -20 -9 -3 -4 -36 -25 -74 -49 -67 -40 -70
-41 -84 -24 -14 18 -15 18 -8 0 8 -24 -13 -53 -25 -34 -7 10 -9 10 -9 -2 0
-20 -175 -124 -191 -114 -8 4 -9 3 -5 -4 4 -7 11 -12 16 -12 5 0 133 75 286
166 152 91 284 168 293 172 9 3 18 8 21 11 16 20 775 465 791 465 10 0 15 6
12 13 -3 7 -6 13 -7 13 0 0 -37 -22 -81 -49z"/>
<path d="M2615 3100 c-9 -15 -176 -112 -182 -106 -3 3 -13 -3 -22 -13 -9 -10
-83 -57 -166 -106 -82 -48 -172 -101 -200 -118 -137 -84 -217 -127 -227 -121
-6 4 -8 2 -5 -3 8 -12 -140 -100 -157 -95 -6 2 -8 0 -4 -4 7 -6 -164 -113
-187 -117 -5 -1 -15 -7 -22 -13 -27 -26 -174 -104 -184 -99 -5 4 -8 1 -7 -7 2
-8 -6 -13 -18 -12 -14 0 -20 -4 -17 -13 4 -10 18 -6 58 17 55 32 82 40 49 15
-10 -8 -14 -14 -9 -15 18 0 36 16 33 30 -2 7 3 15 10 17 8 3 10 -2 6 -14 -5
-14 -4 -15 4 -3 6 8 9 17 7 20 -5 8 175 114 181 107 3 -3 -7 -12 -23 -21 -17
-9 -22 -15 -12 -16 16 0 57 38 51 47 -3 5 103 73 114 73 3 0 2 -5 -1 -10 -6
-10 15 -10 25 0 3 3 18 13 33 23 15 10 25 21 23 26 -3 4 23 24 57 44 34 20 64
32 67 27 9 -14 55 14 54 33 -1 9 2 17 7 17 5 0 9 -5 9 -10 0 -7 7 -7 21 1 15
7 18 13 10 18 -7 5 16 24 58 49 73 43 87 49 76 32 -3 -5 -1 -10 4 -10 6 0 11
5 11 11 0 5 4 8 9 5 5 -3 14 1 20 8 10 12 8 14 -11 9 -13 -2 0 8 27 24 28 16
77 46 110 66 68 42 99 50 42 12 -49 -34 -47 -39 3 -12 22 12 38 27 35 34 -5
15 117 86 125 73 3 -5 26 4 50 20 25 17 38 30 30 30 -8 0 2 11 23 24 21 13 34
27 29 30 -6 4 -13 2 -17 -4z"/>
<path d="M2075 2655 c-14 -14 -25 -23 -25 -20 0 3 -13 -2 -30 -12 -16 -9 -30
-21 -30 -26 0 -5 12 0 28 11 15 11 30 20 35 20 14 2 67 36 67 44 0 15 -19 8
-45 -17z"/>
<path d="M600 2643 c-43 -16 -86 -38 -92 -47 -5 -7 -11 -6 -18 4 -7 12 -10 12
-10 1 0 -7 -6 -11 -14 -8 -8 3 -17 0 -19 -8 -8 -20 -77 -41 -87 -25 -5 8 -9 4
-13 -10 -4 -17 -11 -21 -26 -17 -12 3 -19 1 -16 -3 7 -11 -31 -23 -45 -15 -5
3 -10 1 -10 -6 0 -7 -3 -9 -7 -6 -3 4 -11 3 -17 -2 -9 -7 -69 -30 -96 -36 -3
-1 -16 -6 -30 -12 -14 -6 -42 -18 -62 -26 -21 -9 -38 -23 -38 -31 0 -17 15
-12 305 94 94 35 221 79 283 100 62 20 114 41 115 46 2 10 -80 16 -103 7z"/>
<path d="M1925 2570 c-10 -11 -22 -20 -27 -20 -13 0 -42 -30 -35 -36 2 -3 11
1 19 9 8 8 28 22 46 31 18 9 32 21 32 26 0 16 -16 11 -35 -10z"/>
<path d="M2979 2383 c-8 -10 -15 -22 -16 -27 -1 -5 -12 -16 -25 -25 -13 -9
-24 -22 -26 -29 -3 -18 18 -5 42 26 11 14 22 20 28 14 10 -10 1 -42 -12 -42
-5 0 -23 -16 -41 -35 -18 -18 -37 -31 -42 -28 -6 3 -7 1 -4 -4 4 -6 -14 -28
-39 -49 -26 -22 -53 -45 -60 -52 -15 -14 -38 -7 -29 9 4 5 1 9 -4 9 -16 0 -14
-11 6 -32 9 -10 11 -18 5 -18 -7 0 -45 -33 -86 -72 -107 -104 -202 -193 -286
-268 -70 -62 -92 -82 -175 -158 -19 -18 -40 -30 -45 -27 -15 9 -12 27 3 19 6
-4 9 -3 4 1 -9 11 31 55 50 55 8 0 11 5 8 10 -3 6 -1 10 6 10 6 0 22 12 35 28
13 15 24 23 24 19 0 -4 9 -3 20 3 11 6 18 15 15 20 -3 5 5 14 17 21 29 15 78
65 71 72 -3 3 -17 -7 -32 -22 -15 -16 -32 -30 -38 -32 -15 -5 -99 -75 -146
-121 -21 -21 -40 -38 -43 -38 -2 0 -29 -25 -59 -55 -31 -30 -58 -55 -60 -55
-10 0 -137 -132 -132 -137 7 -6 40 23 121 102 92 90 111 104 127 94 11 -7 7
-15 -21 -39 -19 -16 -40 -28 -46 -26 -6 3 -11 -3 -10 -12 0 -9 -10 -22 -24
-29 -14 -7 -21 -13 -16 -13 5 0 -5 -13 -24 -30 -18 -16 -37 -27 -42 -24 -5 3
-8 2 -7 -3 5 -19 -13 -41 -29 -36 -9 4 -14 3 -10 -2 11 -11 -107 -118 -134
-122 -22 -3 -22 -3 -3 15 11 11 23 18 26 16 4 -2 6 3 5 11 0 7 3 14 8 14 5 -1
13 6 18 15 5 9 16 16 25 16 12 0 14 3 7 10 -12 12 -47 2 -38 -11 3 -5 1 -9 -5
-9 -22 0 -100 -83 -106 -114 -16 -77 -30 -101 -57 -97 -4 0 -2 -11 4 -25 l12
-25 10 25 c13 29 586 560 625 579 14 6 25 17 24 22 -3 12 87 105 100 105 5 0
3 -8 -4 -17 -11 -15 -10 -15 8 1 13 10 21 22 18 26 -2 4 115 119 260 255 l265
247 0 54 c0 30 -1 54 -3 54 -1 0 -9 -8 -18 -17z"/>
<path d="M2029 2266 c-537 -279 -674 -356 -633 -356 4 0 30 13 58 29 28 16
182 97 341 181 500 263 484 254 474 264 -2 2 -110 -51 -240 -118z"/>
<path d="M4 2302 c13 -22 208 -144 332 -209 69 -36 124 -66 122 -67 -2 -2 -27
-17 -55 -34 l-53 -32 -21 23 -21 22 11 -22 c14 -27 14 -43 1 -43 -6 0 -34 -16
-63 -35 -28 -19 -57 -35 -64 -35 -7 0 -13 -5 -13 -10 0 -6 -8 -14 -17 -17 -10
-4 -44 -24 -75 -45 -32 -21 -58 -36 -58 -33 0 4 -7 0 -15 -9 -8 -8 -15 -18
-15 -21 0 -7 22 5 169 97 52 32 96 57 98 55 2 -2 -18 -17 -43 -33 -26 -16 -83
-53 -128 -81 -44 -29 -85 -54 -90 -56 -5 -2 -7 -8 -5 -15 2 -7 53 21 129 71
252 168 432 279 445 273 8 -3 17 -1 20 3 7 12 -24 23 -38 14 -9 -5 -9 -3 -1 8
8 10 8 42 3 103 -11 120 -22 124 -15 6 l6 -95 -35 -22 c-19 -13 -39 -23 -45
-23 -27 0 -273 137 -385 214 -82 57 -89 61 -81 48z"/>
<path d="M2862 2274 c3 -5 0 -15 -8 -22 -8 -7 -14 -10 -14 -6 0 4 -13 -7 -30
-24 -16 -18 -30 -37 -30 -42 0 -6 -4 -9 -9 -5 -5 3 -12 1 -16 -5 -15 -25 27
-7 56 25 18 18 37 31 43 28 6 -3 8 -2 3 2 -4 5 0 16 9 26 12 13 12 19 3 25 -7
4 -10 3 -7 -2z"/>
<path d="M638 2150 c-55 -29 -94 -62 -52 -46 10 4 24 9 30 10 6 1 19 10 28 19
10 9 21 15 26 12 4 -3 13 2 20 10 7 8 16 15 21 15 13 0 61 -88 54 -100 -4 -6
-1 -9 5 -8 13 3 62 -77 52 -86 -3 -4 4 -9 15 -12 25 -7 57 -50 48 -64 -3 -5 1
-12 9 -17 18 -11 76 -106 76 -126 0 -8 7 -18 16 -21 9 -4 14 -13 10 -21 -3 -9
1 -18 9 -21 8 -4 15 -12 15 -20 0 -8 4 -14 8 -14 10 0 37 -51 33 -63 -1 -5 3
-6 8 -3 11 7 -19 77 -62 143 -15 24 -27 46 -27 49 0 4 -12 23 -26 42 l-27 34
34 -7 c40 -9 31 5 -13 20 -22 7 -38 23 -52 51 -20 39 -25 44 -44 44 -4 0 -13
12 -19 28 -14 31 -60 113 -87 155 -23 34 -37 33 -108 -3z"/>
<path d="M2697 2115 c-15 -14 -22 -25 -15 -25 20 0 41 17 44 34 3 20 5 20 -29
-9z"/>
<path d="M2643 2065 c-18 -20 -16 -35 5 -34 11 0 12 2 4 6 -9 3 -7 10 9 24 14
12 17 19 8 19 -8 -1 -20 -7 -26 -15z"/>
<path d="M208 2045 c-14 -13 -38 -27 -51 -30 -14 -4 -28 -13 -31 -21 -3 -8
-11 -14 -17 -14 -7 0 -19 -7 -28 -15 -9 -8 -27 -23 -40 -33 -21 -16 -22 -20
-8 -25 11 -4 17 -1 17 8 0 8 7 15 16 15 18 0 46 25 37 34 -4 3 3 6 15 6 13 0
22 6 22 15 0 9 6 12 15 9 8 -4 15 -1 15 5 0 6 7 11 15 11 8 0 15 5 15 12 0 6
3 9 6 5 3 -3 17 -1 31 4 18 7 30 6 42 -3 9 -7 5 0 -8 15 -14 15 -27 27 -30 27
-4 0 -18 -11 -33 -25z"/>
<path d="M2585 1993 c-36 -59 -43 -72 -24 -53 28 28 61 80 57 90 -2 6 -16 -11
-33 -37z"/>
<path d="M2818 1888 c49 -51 108 -114 132 -141 24 -26 45 -45 48 -43 6 7 -248
276 -260 276 -5 0 31 -42 80 -92z"/>
<path d="M333 1828 c-106 -61 -191 -113 -189 -115 2 -3 73 35 158 83 84 48
172 98 196 111 40 22 52 34 35 32 -5 0 -95 -50 -200 -111z"/>
<path d="M573 1903 c-17 -16 -84 -61 -148 -102 -63 -41 -114 -76 -111 -78 5
-6 306 190 306 200 0 14 -16 7 -47 -20z"/>
<path d="M666 1681 c-9 -9 -13 -22 -9 -26 5 -5 1 -4 -8 3 -14 11 -20 9 -38
-15 -12 -15 -29 -28 -37 -29 -29 -4 -45 -14 -39 -23 9 -15 44 -9 38 6 -3 9 0
11 10 7 10 -3 21 2 28 14 7 11 18 18 25 15 7 -2 19 5 26 16 7 12 18 21 25 21
15 0 17 16 4 24 -4 3 -16 -3 -25 -13z"/>
<path d="M72 1644 c-40 -26 -71 -49 -68 -51 4 -4 146 87 146 93 0 7 -5 4 -78
-42z"/>
<path d="M370 1670 c-6 -11 -15 -18 -21 -15 -5 4 -9 1 -9 -4 0 -15 5 -14 40 7
16 10 27 22 23 25 -11 12 -22 8 -33 -13z"/>
<path d="M152 1629 c-7 -11 -16 -18 -20 -16 -4 2 -20 -10 -37 -26 l-30 -28 53
32 c57 35 67 45 54 53 -4 2 -14 -4 -20 -15z"/>
<path d="M671 1625 c-12 -13 -19 -25 -14 -28 5 -3 15 3 23 13 8 10 17 17 21
14 4 -2 10 0 13 5 13 20 -20 17 -43 -4z"/>
<path d="M703 1588 c-13 -6 -23 -15 -23 -20 0 -4 -5 -8 -12 -8 -6 0 -26 -11
-45 -26 -18 -14 -38 -22 -43 -19 -6 3 -10 1 -10 -4 0 -6 4 -11 10 -11 16 0 60
23 60 32 0 4 3 7 8 6 10 -2 72 36 72 45 0 5 5 5 10 2 6 -3 10 -1 10 4 0 13 -8
13 -37 -1z"/>
<path d="M603 1583 c-7 -2 -13 -12 -14 -21 0 -11 -3 -12 -6 -5 -3 10 -8 10
-19 -1 -28 -29 -13 -38 20 -13 18 15 36 24 39 21 2 -3 7 2 10 11 6 15 -6 18
-30 8z"/>
<path d="M500 1571 c0 -5 -9 -13 -20 -16 -11 -4 -18 -11 -14 -16 4 -6 10 -6
18 0 7 6 16 8 19 4 4 -3 7 1 7 11 0 10 5 14 12 10 7 -4 8 -3 4 4 -9 14 -26 16
-26 3z"/>
<path d="M757 1534 c-3 -3 -3 -12 0 -20 4 -10 0 -12 -11 -8 -17 6 -23 -11 -7
-20 13 -8 34 21 25 35 -5 9 -2 10 10 6 10 -4 15 -3 11 3 -7 11 -19 13 -28 4z"/>
<path d="M656 1504 c-3 -8 -10 -13 -15 -9 -5 3 -12 1 -15 -4 -11 -16 11 -22
24 -6 7 8 16 12 21 9 5 -3 9 2 9 10 0 21 -16 21 -24 0z"/>
<path d="M1130 1498 c0 -16 5 -28 10 -28 6 0 10 -5 10 -12 0 -21 51 -99 61
-93 10 7 0 29 -28 60 -10 12 -19 25 -20 30 -1 6 -9 24 -17 40 l-16 30 0 -27z"/>
<path d="M2950 1477 c-119 -112 -378 -347 -383 -347 -10 0 -330 346 -337 364
-4 13 -9 15 -14 8 -4 -6 22 -42 60 -84 179 -195 280 -298 292 -298 7 0 97 77
200 171 236 217 237 217 231 223 -2 3 -25 -14 -49 -37z"/>
<path d="M435 1474 c-22 -18 -46 -34 -52 -34 -7 0 -13 -4 -13 -9 0 -5 -9 -13
-20 -16 -11 -4 -17 -11 -14 -17 4 -7 9 -6 14 2 4 6 11 12 16 12 16 1 84 48 84
58 0 6 3 10 8 9 13 -2 52 13 52 20 0 18 -39 5 -75 -25z"/>
<path d="M706 1485 c-3 -8 -12 -15 -21 -15 -16 0 -21 -15 -7 -24 5 -3 14 4 22
14 8 10 17 17 22 14 4 -3 8 -1 8 5 0 17 -18 22 -24 6z"/>
<path d="M790 1480 c0 -6 -6 -10 -12 -8 -14 3 -95 -43 -97 -54 0 -5 -1 -11 -1
-14 0 -4 -7 -1 -15 6 -13 11 -13 15 -3 21 9 6 10 11 2 19 -8 8 -14 7 -24 -5
-7 -8 -19 -15 -26 -15 -15 0 -19 -12 -7 -23 3 -4 13 -1 21 5 12 10 17 9 29 -9
l15 -22 31 32 c17 18 33 31 34 29 5 -4 61 27 68 38 3 5 1 10 -4 10 -6 0 -11
-5 -11 -10z"/>
<path d="M574 1455 c-12 -8 -25 -11 -29 -7 -5 4 -5 1 -1 -5 4 -7 3 -13 -3 -13
-6 0 -26 -11 -45 -24 -26 -17 -32 -26 -21 -30 8 -3 20 3 27 13 7 10 23 21 36
25 12 4 22 12 22 17 0 5 6 9 14 9 7 0 19 7 26 15 16 19 1 19 -26 0z"/>
<path d="M791 1444 c-10 -12 -10 -19 -2 -27 8 -8 11 -7 11 6 0 9 3 16 8 15 4
-2 8 1 10 7 6 16 -12 15 -27 -1z"/>
<path d="M418 1409 c-25 -27 -3 -34 28 -10 15 12 25 21 23 22 -27 5 -37 3 -51
-12z"/>
<path d="M756 1415 c5 -11 2 -13 -12 -8 -12 4 -15 3 -10 -5 7 -11 -6 -17 -27
-13 -5 1 -6 -3 -2 -9 6 -10 -7 -14 -34 -10 -9 1 -12 -5 -8 -20 4 -17 3 -19 -9
-9 -8 7 -14 7 -14 1 0 -17 30 -23 37 -7 3 9 25 27 49 41 40 23 59 54 34 54 -5
0 -7 -7 -4 -15z"/>
<path d="M817 1405 c-9 -7 -17 -17 -17 -23 0 -6 -9 -9 -19 -7 -11 2 -25 -2
-31 -10 -6 -7 -22 -16 -35 -19 -16 -4 -22 -11 -19 -20 7 -18 32 -10 56 17 9
10 21 16 27 13 6 -4 17 4 26 18 9 14 22 23 30 20 7 -3 16 -1 19 4 9 16 -18 21
-37 7z"/>
<path d="M2990 1414 c-3 -5 -68 -68 -145 -139 -77 -71 -141 -134 -143 -140 -1
-6 15 -28 37 -49 l40 -39 43 36 c93 79 183 165 177 171 -6 6 -89 -58 -168
-129 -39 -36 -68 -40 -77 -12 -6 21 34 64 194 210 43 39 53 54 50 75 -2 15 -5
22 -8 16z"/>
<path d="M554 1397 c-18 -19 -52 -46 -56 -44 -2 1 0 -2 4 -7 4 -5 14 -2 22 5
38 34 47 40 57 33 7 -4 10 -1 7 6 -6 19 -21 22 -34 7z"/>
<path d="M1215 1351 c-3 -5 8 -31 24 -56 16 -26 27 -53 25 -60 -3 -7 -1 -16 5
-20 7 -4 9 1 5 12 -5 15 -4 15 4 3 6 -8 9 -17 6 -21 -4 -8 31 -68 76 -127 14
-19 24 -37 23 -40 -1 -4 8 -18 20 -31 12 -13 16 -21 10 -17 -9 5 -11 2 -7 -8
3 -9 12 -16 20 -16 7 0 20 -13 29 -30 9 -16 20 -30 25 -30 10 0 -118 219 -154
263 -14 16 -22 35 -20 42 3 7 -1 15 -9 18 -8 3 -17 17 -21 32 -4 15 -18 38
-31 53 -13 14 -22 29 -19 34 3 4 3 8 0 8 -3 0 -7 -4 -11 -9z"/>
<path d="M880 1340 c0 -5 -21 -20 -47 -32 -25 -12 -41 -24 -34 -26 17 -6 71
18 71 31 0 6 3 7 7 4 9 -9 34 13 27 24 -7 12 -24 11 -24 -1z"/>
<path d="M1031 1328 c14 -26 158 -248 170 -262 4 -4 12 -5 18 -2 14 9 -6 43
-29 49 -8 2 -48 56 -88 120 -41 65 -76 117 -78 117 -3 0 1 -10 7 -22z"/>
<path d="M629 1288 c-12 -13 -19 -16 -15 -8 5 9 2 9 -7 -2 -8 -10 -18 -14 -22
-10 -5 4 -5 1 -1 -5 6 -10 15 -10 44 2 42 18 51 25 31 25 -11 0 -11 2 1 10 9
6 10 10 3 10 -7 0 -22 -10 -34 -22z"/>
<path d="M703 1284 c-12 -13 -18 -26 -13 -29 5 -3 15 4 23 15 7 11 17 17 20
13 4 -3 7 1 7 10 0 22 -10 20 -37 -9z"/>
<path d="M892 1291 c-29 -24 -28 -35 1 -19 12 7 25 11 30 10 4 -1 7 5 7 13 0
20 -12 19 -38 -4z"/>
<path d="M774 1245 c5 -17 -3 -25 -38 -45 -28 -15 -44 -30 -43 -41 1 -13 4
-15 14 -7 7 5 10 14 7 19 -3 5 6 9 20 9 17 0 26 6 26 16 0 8 5 12 10 9 6 -3
10 -1 10 5 0 7 7 9 17 6 14 -6 14 -4 -2 16 -11 13 -22 25 -24 28 -2 3 -1 -4 3
-15z"/>
<path d="M545 1238 c-11 -7 -26 -18 -33 -25 -11 -11 -10 -13 5 -13 10 0 29 12
42 25 25 27 19 32 -14 13z"/>
<path d="M600 1218 c-25 -18 -47 -36 -48 -40 -2 -4 -8 -6 -12 -3 -5 3 -11 1
-14 -4 -3 -5 1 -11 9 -15 8 -3 15 -2 15 2 0 4 25 23 55 42 30 19 55 38 55 43
0 13 -14 7 -60 -25z"/>
<path d="M870 1223 c-22 -8 -50 -35 -50 -47 0 -6 7 -3 14 6 7 10 15 16 17 14
2 -2 13 5 23 15 20 20 20 21 -4 12z"/>
<path d="M944 1220 c-12 -5 -25 -13 -28 -19 -12 -19 10 -20 38 -2 31 20 24 33
-10 21z"/>
<path d="M655 1200 c-10 -11 -38 -30 -61 -42 -24 -12 -41 -25 -38 -30 7 -11
104 44 104 59 0 7 7 10 15 7 11 -5 13 -2 9 10 -8 20 -7 20 -29 -4z"/>
<path d="M2932 1157 c-18 -18 -32 -37 -32 -43 0 -6 15 -25 33 -42 33 -32 34
-32 51 -13 17 18 16 19 -12 26 -41 8 -46 28 -15 56 13 13 26 23 29 22 12 -8
15 -1 4 12 -17 21 -22 19 -58 -18z"/>
<path d="M30 1172 c0 -7 -7 -9 -17 -5 -15 6 -15 5 -3 -8 15 -16 50 -23 50 -10
0 5 -7 14 -15 21 -10 8 -15 9 -15 2z"/>
<path d="M770 1166 c0 -10 -5 -14 -10 -11 -6 3 -13 -1 -16 -9 -3 -9 -11 -13
-17 -9 -6 4 -7 1 -2 -7 7 -11 10 -10 19 1 6 8 20 16 31 17 27 5 28 7 10 22
-12 10 -15 10 -15 -4z"/>
<path d="M830 1152 c-14 -9 -26 -20 -28 -24 -2 -5 -12 -8 -21 -8 -10 0 -30
-11 -45 -25 -15 -14 -35 -25 -44 -26 -11 0 -12 -3 -4 -6 6 -2 9 -9 6 -15 -9
-15 30 8 45 26 8 9 17 13 22 10 5 -3 9 2 9 10 0 9 6 13 14 10 9 -3 28 7 44 24
17 17 33 28 38 24 4 -4 4 -1 0 6 -9 14 -5 15 -36 -6z"/>
<path d="M1010 1152 c0 -7 -6 -11 -12 -9 -7 1 -12 -3 -11 -10 2 -7 -4 -10 -12
-7 -8 4 -15 1 -15 -5 0 -6 -3 -10 -7 -10 -23 4 -36 -2 -27 -11 7 -7 20 -5 41
5 35 18 59 42 49 52 -3 3 -6 1 -6 -5z"/>
<path d="M910 1139 c0 -5 -4 -8 -9 -4 -15 9 -24 -16 -11 -28 10 -9 11 -9 6 0
-4 8 2 15 19 19 27 7 34 24 10 24 -8 0 -15 -5 -15 -11z"/>
<path d="M673 1103 c-3 -7 -9 -11 -13 -8 -5 3 -11 1 -14 -4 -13 -20 22 -17 49
5 28 22 28 23 6 21 -13 -1 -26 -7 -28 -14z"/>
<path d="M1018 1113 c-11 -3 -15 -10 -11 -20 4 -9 2 -14 -3 -11 -5 3 -17 2
-27 -1 -16 -6 -17 -9 -5 -19 12 -9 19 -7 36 8 12 11 28 20 37 20 9 0 15 5 13
12 -5 14 -17 17 -40 11z"/>
<path d="M2628 1075 c-27 -24 -48 -47 -48 -52 1 -4 18 -26 40 -47 l38 -39 51
42 c28 24 51 48 51 55 0 11 -71 86 -80 86 -3 -1 -26 -20 -52 -45z m102 -40 c0
-11 -61 -55 -77 -55 -5 0 -15 10 -20 23 -9 18 -6 27 15 49 24 27 26 27 54 10
15 -9 28 -21 28 -27z"/>
<path d="M57 1103 c-11 -3 -27 -13 -37 -23 -16 -16 -16 -19 -4 -24 8 -3 12 -2
9 4 -3 5 4 14 16 21 19 9 25 9 35 -5 7 -10 15 -13 18 -8 7 12 -3 43 -13 41 -3
-1 -14 -3 -24 -6z"/>
<path d="M2834 1066 l-38 -33 29 -36 c17 -20 34 -36 38 -36 13 -1 77 53 77 65
0 13 -50 74 -61 74 -3 0 -23 -15 -45 -34z m64 -19 c16 -19 -9 -47 -36 -40 -24
6 -28 23 -10 41 15 15 33 15 46 -1z"/>
<path d="M800 1076 c-15 -15 -12 -26 6 -26 10 0 14 6 11 14 -4 10 -1 13 9 9 7
-3 14 -1 14 4 0 13 -27 12 -40 -1z"/>
<path d="M743 1049 c-12 -12 -7 -39 8 -39 5 0 9 7 9 16 0 9 5 12 13 8 8 -5 8
-2 -2 9 -16 20 -14 20 -28 6z"/>
<path d="M1282 995 c18 -30 34 -53 36 -50 5 5 -51 105 -60 105 -4 0 7 -25 24
-55z"/>
<path d="M892 1022 c-7 -9 -10 -11 -7 -4 8 16 -5 15 -24 -3 -52 -47 -61 -54
-61 -48 0 4 -5 2 -12 -5 -9 -9 -9 -15 1 -24 11 -10 13 -10 7 0 -4 6 -3 12 2
12 4 0 18 9 30 21 12 11 27 17 34 13 7 -4 8 -3 4 4 -4 8 0 12 11 12 28 0 50
17 38 29 -7 7 -15 5 -23 -7z"/>
<path d="M2961 1012 l-34 -28 36 -39 c29 -30 37 -35 37 -21 0 10 -8 24 -17 31
-16 12 -16 14 1 39 26 41 15 50 -23 18z"/>
<path d="M80 1020 c0 -5 7 -7 15 -4 8 4 17 -1 21 -9 3 -9 12 -13 19 -11 8 3
12 11 9 18 -6 15 -64 20 -64 6z"/>
<path d="M25 989 c-17 -10 -24 -19 -16 -19 11 0 11 -3 0 -17 -13 -15 -12 -15
9 -2 12 8 17 16 11 18 -6 2 2 12 18 22 15 10 24 19 18 18 -5 0 -23 -9 -40 -20z"/>
<path d="M2515 974 l-39 -35 45 -45 45 -45 37 33 c20 19 37 38 37 44 0 10 -72
84 -80 84 -3 -1 -23 -17 -45 -36z m45 -15 c0 -6 6 -9 14 -6 20 8 30 -24 12
-41 -13 -13 -17 -12 -39 4 -19 16 -22 23 -13 37 12 19 26 23 26 6z"/>
<path d="M2737 977 l-39 -32 35 -39 36 -38 29 20 c55 40 57 48 26 86 -16 19
-33 35 -39 35 -5 0 -27 -14 -48 -32z m67 -15 c10 -16 -6 -52 -23 -52 -24 0
-40 19 -34 41 5 19 47 27 57 11z"/>
<path d="M145 953 c-15 -12 -16 -14 -3 -10 9 3 18 1 20 -5 2 -6 10 -9 16 -7
10 3 10 8 0 21 -12 16 -15 16 -33 1z"/>
<path d="M2878 936 c-21 -18 -38 -37 -38 -43 0 -5 15 -24 34 -42 l34 -33 36
32 c20 18 36 37 36 44 0 7 -15 26 -32 43 l-33 31 -37 -32z m65 -41 c-9 -25
-44 -40 -54 -24 -13 21 -11 30 8 44 22 16 55 2 46 -20z"/>
<path d="M1177 933 c-48 -49 -68 -64 -78 -57 -14 8 -49 -25 -49 -48 0 -10 4
-18 8 -18 5 0 18 -18 31 -40 23 -42 49 -51 71 -25 7 8 16 15 21 15 9 0 22 -36
24 -69 1 -21 28 -51 47 -51 4 0 26 16 48 36 52 47 54 79 6 99 -47 20 -51 31
-24 57 13 13 22 22 19 21 -2 -2 -18 21 -36 50 -17 28 -38 53 -46 55 -8 1 -27
-10 -42 -25z m79 -40 c10 -15 10 -21 -4 -38 -16 -19 -16 -19 1 -6 9 8 21 11
25 7 6 -7 -35 -46 -48 -45 -3 0 -12 15 -21 35 -16 33 -16 35 4 49 27 19 27 19
43 -2z m-58 -49 c9 -18 9 -31 1 -46 -11 -20 -12 -20 -35 8 -28 35 -29 40 -6
53 25 15 28 14 40 -15z m-28 -67 c0 -5 -9 -11 -20 -14 -11 -3 -17 -9 -14 -14
3 -5 1 -9 -4 -9 -6 0 -19 15 -31 33 l-20 32 22 17 c21 16 23 16 44 -10 12 -15
22 -31 23 -35z m100 3 c11 -11 26 -20 34 -20 17 0 27 -25 19 -47 -5 -14 -8
-13 -14 6 -5 12 -20 26 -34 31 -14 5 -25 11 -25 14 0 2 -3 11 -6 20 -8 22 2
20 26 -4z m6 -40 c33 -13 33 -50 -1 -50 -19 0 -26 6 -30 28 -4 15 -10 35 -16
44 -15 28 -10 34 7 10 9 -13 27 -27 40 -32z m-44 -20 c1 -14 13 -29 26 -35 29
-13 28 -25 -3 -25 -25 0 -46 26 -38 48 3 7 -2 23 -11 36 -8 13 -12 26 -9 30 9
9 30 -25 35 -54z"/>
<path d="M725 924 c-15 -14 -24 -28 -20 -32 4 -4 12 1 19 10 7 10 15 16 17 14
2 -2 10 2 16 9 24 26 -4 25 -32 -1z"/>
<path d="M2428 894 c-44 -39 -45 -45 -18 -69 19 -17 21 -17 54 11 39 33 44 54
19 77 -17 14 -21 13 -55 -19z"/>
<path d="M2648 898 c-21 -16 -38 -35 -38 -41 0 -6 14 -26 32 -44 l31 -32 39
30 c21 17 38 36 38 43 0 7 -15 26 -32 43 l-33 32 -37 -31z m56 -51 c-7 -19
-39 -23 -49 -6 -4 5 1 19 11 30 15 16 20 17 31 6 8 -7 11 -21 7 -30z"/>
<path d="M185 882 c-20 -7 -115 -70 -115 -76 0 -2 7 -6 14 -9 9 -4 13 -1 11 6
-5 13 67 67 88 67 7 0 18 -5 25 -12 15 -15 26 -4 19 17 -7 16 -11 17 -42 7z"/>
<path d="M2777 844 l-39 -36 33 -34 c18 -19 37 -34 43 -34 6 0 25 14 42 31
l33 32 -31 38 c-17 22 -34 39 -37 39 -3 0 -23 -17 -44 -36z m68 -13 c3 -5 0
-21 -6 -34 -8 -17 -17 -23 -30 -20 -27 8 -30 17 -13 41 16 23 39 29 49 13z"/>
<path d="M2973 850 c-29 -23 -29 -31 2 -60 20 -19 25 -20 25 -7 0 9 -5 19 -10
22 -8 5 -7 11 0 20 7 8 10 21 8 29 -2 12 -7 11 -25 -4z"/>
<path d="M2327 804 l-38 -36 38 -43 c21 -24 41 -44 45 -44 10 -2 78 61 78 72
0 10 -71 87 -80 87 -3 0 -22 -16 -43 -36z m46 -23 c25 -10 42 -47 26 -57 -5
-3 -9 0 -9 6 0 6 -4 9 -9 5 -9 -5 -41 31 -41 47 0 10 3 10 33 -1z"/>
<path d="M2544 806 l-39 -34 34 -36 c19 -20 38 -36 41 -36 4 0 24 15 46 34
l39 34 -34 36 c-19 20 -38 36 -41 36 -4 0 -24 -15 -46 -34z m69 -47 c-4 -12
-11 -18 -20 -15 -8 3 -19 6 -24 6 -17 0 -9 38 9 42 24 6 41 -9 35 -33z"/>
<path d="M917 796 c-33 -19 -54 -37 -48 -40 6 -4 11 -2 11 4 0 6 4 9 10 5 5
-3 18 2 28 12 10 10 25 19 33 21 17 4 47 32 34 32 -6 0 -36 -16 -68 -34z"/>
<path d="M2887 774 l-39 -36 33 -34 c18 -19 36 -34 41 -34 4 0 23 14 42 31
l36 31 -32 39 c-17 21 -34 39 -37 39 -3 0 -23 -17 -44 -36z m73 -19 c11 -13
10 -18 -6 -30 -39 -30 -83 -5 -52 29 17 20 42 20 58 1z"/>
<path d="M2683 760 c-18 -16 -33 -33 -33 -37 1 -11 58 -73 68 -73 4 0 23 16
41 34 l34 35 -29 35 c-16 19 -33 35 -39 35 -5 0 -25 -13 -42 -29z m62 -20 c3
-6 4 -19 0 -29 -7 -24 -49 -22 -53 3 -6 28 38 50 53 26z"/>
<path d="M2398 674 c-54 -47 -98 -91 -98 -98 0 -6 15 -26 33 -43 l32 -32 95
86 c52 47 96 90 98 97 1 6 -12 26 -30 43 l-33 32 -97 -85z m119 20 c4 -11 -7
-27 -33 -50 -86 -75 -103 -86 -124 -79 -12 4 -20 10 -18 14 7 17 141 131 154
131 8 0 17 -7 21 -16z"/>
<path d="M2230 715 l-34 -35 22 -22 22 -23 37 38 c31 31 36 40 27 55 -18 28
-37 25 -74 -13z"/>
<path d="M277 723 c3 -7 9 -13 14 -13 5 0 12 0 17 0 18 0 5 24 -15 25 -14 1
-19 -3 -16 -12z"/>
<path d="M2793 690 c-18 -16 -33 -33 -33 -37 0 -5 14 -23 30 -41 33 -36 46
-34 89 12 l24 25 -29 35 c-16 19 -33 35 -39 35 -5 0 -25 -13 -42 -29z m64 -27
c4 -10 -2 -23 -17 -35 -21 -17 -23 -17 -35 -1 -9 12 -10 23 -4 35 12 23 48 23
56 1z"/>
<path d="M2587 675 l-39 -34 33 -40 c18 -23 34 -41 35 -41 10 0 74 64 74 74 0
7 -15 26 -32 43 l-33 31 -38 -33z m61 -38 c3 -23 0 -27 -22 -27 -33 0 -42 17
-20 41 22 25 38 20 42 -14z"/>
<path d="M2170 674 c0 -5 73 -86 161 -179 89 -94 200 -212 247 -262 47 -51 93
-93 101 -93 8 0 -51 66 -131 148 -79 81 -178 183 -218 227 -106 116 -160 169
-160 159z"/>
<path d="M2925 640 c-32 -33 -36 -42 -25 -54 12 -16 35 -12 25 4 -8 13 35 60
50 53 19 -7 20 11 2 26 -10 8 -22 1 -52 -29z"/>
<path d="M275 656 c-18 -13 -32 -51 -14 -40 5 3 7 9 4 14 -3 5 4 14 16 21 18
9 25 9 33 -2 6 -8 17 -14 24 -13 6 1 17 2 23 3 8 1 8 6 -1 16 -10 12 -16 13
-28 3 -13 -10 -14 -10 -8 0 10 17 -25 16 -49 -2z"/>
<path d="M2697 605 l-39 -34 33 -40 32 -41 31 23 c51 40 53 51 20 90 -16 20
-31 36 -34 36 -3 0 -22 -15 -43 -34z m66 -24 c5 -22 -2 -35 -25 -44 -31 -11
-47 35 -18 53 23 15 37 12 43 -9z"/>
<path d="M2495 593 c-16 -14 -50 -44 -73 -65 l-44 -40 33 -34 c18 -19 38 -34
43 -34 6 1 42 30 81 65 l70 64 -35 36 c-18 19 -36 35 -39 35 -4 0 -19 -12 -36
-27z m55 -28 c10 -12 4 -23 -34 -62 -43 -43 -48 -46 -71 -33 -19 10 -22 17
-14 31 5 11 17 19 26 19 9 0 14 3 10 6 -7 7 43 53 59 54 6 0 17 -7 24 -15z"/>
<path d="M320 590 c-12 -8 -12 -10 5 -10 16 0 13 -4 -12 -20 -18 -11 -33 -22
-33 -25 0 -3 16 5 36 18 35 22 45 38 27 44 -4 2 -15 -2 -23 -7z"/>
<path d="M850 568 c-30 -16 -66 -37 -80 -46 -14 -9 -52 -31 -85 -48 -32 -17
-61 -37 -63 -44 -3 -7 19 0 49 17 99 55 234 134 244 144 17 17 -9 8 -65 -23z"/>
<path d="M2827 552 l-37 -38 33 -32 c18 -18 37 -32 43 -32 6 0 25 15 42 33 31
32 32 35 16 48 -10 8 -15 9 -11 2 4 -6 -3 -23 -15 -36 -18 -19 -28 -23 -45
-16 -13 5 -23 14 -23 22 0 21 40 59 56 53 17 -7 18 6 2 22 -17 17 -20 16 -61
-26z"/>
<path d="M2598 517 l-37 -32 34 -39 33 -39 41 32 c23 18 41 36 41 40 0 8 -63
71 -70 71 -3 -1 -22 -15 -42 -33z m63 -17 c16 -9 17 -14 6 -30 -14 -23 -52
-27 -61 -5 -3 8 2 21 10 30 18 18 20 18 45 5z"/>
<path d="M372 519 c3 -8 13 -13 23 -11 9 2 15 -1 12 -5 -3 -5 5 -10 18 -11 22
-1 48 16 28 19 -4 1 -17 3 -28 4 -11 2 -28 6 -39 10 -14 6 -17 4 -14 -6z"/>
<path d="M2964 507 c-24 -21 -25 -25 -13 -45 15 -24 39 -26 47 -4 2 7 -2 10
-11 6 -17 -6 -34 15 -21 25 14 10 37 41 31 41 -3 0 -18 -10 -33 -23z"/>
<path d="M2733 470 c-18 -16 -33 -33 -33 -38 0 -4 15 -23 33 -40 l33 -32 37
31 c20 17 37 35 37 38 0 12 -56 71 -66 71 -5 0 -24 -14 -41 -30z m77 -33 c0
-33 -48 -49 -69 -23 -18 21 25 59 50 45 11 -5 19 -15 19 -22z"/>
<path d="M2507 437 c-20 -18 -37 -36 -37 -42 0 -5 14 -24 31 -41 l32 -33 38
32 c21 18 39 37 39 43 0 5 -15 24 -32 41 l-33 31 -38 -31z m61 -19 c16 -16 -3
-48 -28 -48 -35 0 -25 54 11 59 3 1 10 -4 17 -11z"/>
<path d="M2870 425 l-34 -35 22 -22 22 -22 40 39 c37 36 39 40 23 57 -23 25
-34 23 -73 -17z m45 -15 c-10 -11 -25 -20 -34 -20 -11 1 -8 8 13 26 32 29 48
24 21 -6z"/>
<path d="M2612 364 l-63 -57 32 -33 c18 -19 37 -34 42 -34 5 0 35 23 68 51
l59 52 -31 38 c-17 22 -34 39 -37 39 -4 0 -35 -25 -70 -56z m96 -6 c3 -17 -63
-88 -83 -88 -18 0 -36 25 -30 41 9 22 77 70 94 67 9 -2 17 -11 19 -20z"/>
<path d="M2779 342 l-44 -41 22 -22 21 -22 41 39 41 39 -19 24 -18 24 -44 -41z"/>
<path d="M2678 255 c-43 -40 -45 -46 -20 -69 18 -15 21 -14 63 23 44 39 44 39
25 60 -11 12 -22 21 -25 21 -3 0 -23 -16 -43 -35z"/>
<path d="M2837 236 c-10 -8 -15 -20 -11 -30 8 -22 26 -21 22 2 -1 9 1 23 5 30
10 15 7 15 -16 -2z"/>
<path d="M2610 122 c0 -5 3 -12 8 -16 4 -4 7 -11 7 -14 1 -26 30 -72 46 -72
18 0 18 2 4 23 -8 13 -12 27 -8 30 3 4 1 7 -5 7 -7 0 -12 5 -12 11 0 11 -24
39 -34 39 -3 0 -6 -4 -6 -8z"/>
<path d="M2710 35 c-15 -28 -9 -41 16 -31 13 5 14 10 6 18 -6 6 -8 17 -5 24 9
23 -3 16 -17 -11z"/>
</g>
</svg>
